<?xml version="1.0" encoding="UTF-8" standalone="no"?>
<svg
   width="16"
   height="16"
   version="1.1"
   id="svg1"
   xmlns="http://www.w3.org/2000/svg"
   xmlns:svg="http://www.w3.org/2000/svg">
  <defs
     id="defs1" />
  <path
     d="M 8.0175781,3.4882813 V 12.236328 H 11.4375 c 1.332,0 2.171766,-0.311531 2.759766,-1.019531 0.696,-0.816 1.068359,-2.0053283 1.068359,-3.3613283 0,-1.344 -0.372359,-2.531375 -1.068359,-3.359375 -0.588,-0.708 -1.415766,-1.0078124 -2.759766,-1.0078124 z M 9.8183594,4.9882812 H 11.4375 c 1.356,0 2.029297,0.9469063 2.029297,2.8789063 0,1.92 -0.673297,2.8691405 -2.029297,2.8691405 H 9.8183594 Z"
     style="font-weight:600;font-size:12px;font-family:FreeSans;-inkscape-font-specification:'FreeSans Semi-Bold';display:inline;fill:#e0e0e0;stroke-width:20;stroke-linecap:round;stroke-linejoin:round;stroke-miterlimit:0;paint-order:stroke markers fill"
     id="path9" />
  <path
     d="m 3.6503906,3.5488281 c -1.764,0 -2.79687497,1.04375 -2.79687497,2.84375 0,0.072 -2.8126e-4,0.1668282 0.0117188,0.2988281 H 2.4746094 V 6.4160156 c 0,-0.948 0.4429375,-1.5 1.2109375,-1.5 0.744,0 1.2011718,0.5151875 1.2011718,1.3671875 0,0.936 -0.287875,1.320625 -2.1718749,2.640625 -1.4280001,0.996 -1.88475005,1.7404999 -1.96875005,3.3124999 H 6.5292969 v -1.5 H 2.9296875 c 0.72,-1.5239999 3.6367187,-1.9442811 3.6367187,-4.4882811 0,-1.644 -1.1280156,-2.6992188 -2.9160156,-2.6992188 z"
     style="font-weight:600;font-size:12px;font-family:FreeSans;-inkscape-font-specification:'FreeSans Semi-Bold';display:inline;fill:#e0e0e0;stroke-width:20;stroke-linecap:round;stroke-linejoin:round;stroke-miterlimit:0;paint-order:stroke markers fill"
     id="path8" />
</svg>
