<?xml version="1.0" encoding="UTF-8" standalone="no"?>
<svg
   width="16"
   height="16"
   version="1.1"
   id="svg1"
   xmlns="http://www.w3.org/2000/svg"
   xmlns:svg="http://www.w3.org/2000/svg">
  <defs
     id="defs1" />
  <path
     d="M 8.0175781,3.4882813 V 12.236328 H 11.4375 c 1.332,0 2.171766,-0.311531 2.759766,-1.019531 0.696,-0.816 1.068359,-2.0053283 1.068359,-3.3613283 0,-1.344 -0.372359,-2.531375 -1.068359,-3.359375 -0.588,-0.708 -1.415766,-1.0078124 -2.759766,-1.0078124 z M 9.8183594,4.9882812 H 11.4375 c 1.356,0 2.029297,0.9469063 2.029297,2.8789063 0,1.92 -0.673297,2.8691405 -2.029297,2.8691405 H 9.8183594 Z"
     style="font-weight:600;font-size:12px;font-family:FreeSans;-inkscape-font-specification:'FreeSans Semi-Bold';display:inline;fill:#e0e0e0;stroke-width:20;stroke-linecap:round;stroke-linejoin:round;stroke-miterlimit:0;paint-order:stroke markers fill"
     id="path8" />
  <path
     d="m 3.6015625,3.5488281 c -1.092,0 -2.75976563,0.4069375 -2.75976562,2.7109375 V 6.4042969 H 2.4023438 c 0.024,-0.912 0.2160624,-1.5 1.1640625,-1.5 0.672,0 1.0546874,0.4072344 1.0546874,1.1152343 0,0.8520001 -0.4903281,1.2851563 -1.4863281,1.2851563 H 2.9902344 v 1.1269531 c 0.588,0 0.696375,0.011984 0.984375,0.083984 0.564,0.156 0.9238281,0.6474844 0.9238281,1.2714844 0,0.744 -0.5277656,1.285157 -1.2597656,1.285157 -0.792,0 -1.2254375,-0.456032 -1.2734375,-1.332032 H 0.734375 c 0.012,1.704 1.1271875,2.771485 2.8671875,2.771485 1.812,0 2.9765625,-1.06861 2.9765625,-2.72461 0,-0.996 -0.4325781,-1.6433282 -1.3925781,-2.1113282 0.792,-0.4919999 1.1171875,-1.0324999 1.1171875,-1.8125 0,-1.416 -1.0571719,-2.3144531 -2.7011719,-2.3144527 z"
     style="font-weight:600;font-size:12px;font-family:FreeSans;-inkscape-font-specification:'FreeSans Semi-Bold';display:inline;fill:#e0e0e0;stroke-width:20;stroke-linecap:round;stroke-linejoin:round;stroke-miterlimit:0;paint-order:stroke markers fill"
     id="path7" />
</svg>
