<?xml version="1.0" encoding="UTF-8" standalone="no"?>
<svg
   width="16"
   height="16"
   version="1.1"
   id="svg6"
   xmlns="http://www.w3.org/2000/svg"
   xmlns:svg="http://www.w3.org/2000/svg">
  <defs
     id="defs6" />
  <g
     id="g1"
     transform="matrix(2.4841285,0,0,2.4841285,-0.21573771,-0.21573771)"
     style="stroke-width:1.52147">
    <g
       id="g36"
       transform="matrix(1.2299373,0,0,1.2299373,-0.03366657,-0.02537672)"
       style="stroke-width:1.23703">
      <path
         d="M 1.2363844,2.0055718 0.61538448,1.6463506 0.61296141,3.7864216 1.2349997,3.4268536 Z"
         style="display:inline;fill:#e0e0e0;fill-opacity:1;stroke:none;stroke-width:0.16365;stroke-miterlimit:5;stroke-dasharray:none;stroke-opacity:1;paint-order:stroke markers fill"
         id="path20" />
      <path
         d="M 1.3533843,3.6092381 0.70538451,3.9840626 2.606461,5.083571 V 4.3353089 Z"
         style="display:inline;fill:#e0e0e0;fill-opacity:1;stroke:none;stroke-width:0.16365;stroke-miterlimit:5;stroke-dasharray:none;stroke-opacity:1;paint-order:stroke markers fill"
         id="path19" />
      <path
         d="M 2.8231532,4.3269872 V 5.0759427 L 4.7152297,3.9788616 4.0679222,3.6040371 Z"
         style="display:inline;fill:#e0e0e0;fill-opacity:1;stroke:none;stroke-width:0.16365;stroke-miterlimit:5;stroke-dasharray:none;stroke-opacity:1;paint-order:stroke markers fill"
         id="path18" />
      <path
         d="M 4.1904606,3.4244264 4.817345,3.787115 4.8197681,1.6432299 4.1918453,2.0059185 Z"
         style="display:inline;fill:#e0e0e0;fill-opacity:1;stroke:none;stroke-width:0.16365;stroke-miterlimit:5;stroke-dasharray:none;stroke-opacity:1;paint-order:stroke markers fill"
         id="path17" />
      <path
         d="M 2.8231532,0.33845222 V 1.0315829 L 4.1323067,1.7899003 4.7328835,1.4424682 Z"
         style="display:inline;fill:#e0e0e0;fill-opacity:1;stroke:none;stroke-width:0.16365;stroke-miterlimit:5;stroke-dasharray:none;stroke-opacity:1;paint-order:stroke markers fill"
         id="path16" />
      <path
         d="M 2.606461,1.0267285 V 0.33567839 L 0.69707678,1.4424682 1.2948843,1.7885134 Z"
         style="display:inline;fill:#e0e0e0;fill-opacity:1;stroke:none;stroke-width:0.16365;stroke-miterlimit:5;stroke-dasharray:none;stroke-opacity:1;paint-order:stroke markers fill"
         id="path15" />
      <path
         style="font-size:3.52778px;font-family:'Adwaita Mono';-inkscape-font-specification:'Adwaita Mono, @opsz=32';font-variation-settings:'opsz' 32;text-align:center;text-anchor:middle;fill:#e0e0e0;stroke:#e0e0e0;stroke-width:0.201278;stroke-miterlimit:5;paint-order:stroke markers fill"
         d="m 3.1641065,4.4527742 q -0.1128123,0 -0.2299643,-0.030372 Q 2.8213296,4.3963679 2.7258727,4.3312837 2.6304158,4.2618605 2.5609926,4.1664035 2.4959084,4.0709468 2.4568579,3.9624731 2.4178073,3.8539994 2.4004516,3.7411867 2.3874347,3.624035 2.3874347,3.5068834 v -1.345074 h 0.3601327 v 1.345074 q 0,0.078101 0.00868,0.1605411 0.013016,0.078101 0.04339,0.1518632 0.030372,0.073762 0.08244,0.1388464 0.052067,0.060745 0.1171515,0.1041351 0.069424,0.039051 0.1475243,0.056406 0.08244,0.013016 0.160541,0.013016 0.078101,0 0.1562022,-0.013016 0.08244,-0.017356 0.1475242,-0.056406 0.069424,-0.04339 0.1214908,-0.1041351 0.052067,-0.065085 0.08244,-0.1388464 0.030372,-0.073762 0.039051,-0.1518632 0.013016,-0.08244 0.013016,-0.1605411 V 2.1618094 H 4.2271488 V 4.4180626 H 3.867016 V 3.9841678 Q 3.8279655,4.0883029 3.7585429,4.1794205 3.6891204,4.2705379 3.593663,4.3356225 3.5025455,4.4007071 3.3897323,4.42674 3.281258,4.452774 3.1641065,4.4527742 Z"
         id="text1"
         aria-label="u"
         transform="matrix(0.81304958,0,0,0.81304958,0.02737259,0.02063253)" />
    </g>
  </g>
</svg>
