<?xml version="1.0" encoding="UTF-8" standalone="no"?>
<svg
   width="18"
   height="18"
   version="1.1"
   id="svg1"
   xmlns="http://www.w3.org/2000/svg"
   xmlns:svg="http://www.w3.org/2000/svg">
  <defs
     id="defs1" />
  <path
     fill="#e0e0e0"
     d="M 3.8927606,2.615951 A 1.2768096,1.2768096 0 0 0 2.615951,3.8927604 V 14.10724 a 1.2768096,1.2768096 0 0 0 1.2768096,1.276809 H 6.4463798 A 1.2768096,1.2768096 0 0 0 7.723189,14.10724 V 3.8927604 A 1.2768096,1.2768096 0 0 0 6.4463798,2.615951 Z m 7.6608594,0 A 1.2768096,1.2768096 0 0 0 10.27681,3.8927604 V 14.10724 a 1.2768096,1.2768096 0 0 0 1.27681,1.276809 h 2.55362 A 1.2768096,1.2768096 0 0 0 15.384049,14.10724 V 3.8927604 A 1.2768096,1.2768096 0 0 0 14.10724,2.615951 Z"
     id="path1"
     style="stroke-width:0.999993" />
</svg>
