<?xml version="1.0" encoding="UTF-8" standalone="no"?>
<svg
   width="18"
   height="18"
   version="1.1"
   id="svg2"
   xmlns="http://www.w3.org/2000/svg"
   xmlns:svg="http://www.w3.org/2000/svg">
  <defs
     id="defs2" />
  <g
     fill="#1d2229"
     id="g2"
     transform="matrix(1.1415984,0,0,1.1415984,-0.13278683,-0.13278683)"
     style="stroke-width:0.875965">
    <path
       d="M 5.5,1 C 4.8455868,1 4.8455868,2 5.5,2 H 7 V 3.0839844 C 6.1077174,3.2346517 5.2610718,3.5851951 4.5234375,4.109375 L 4.1113281,3.6972656 c -0.1958686,-0.1958686 -0.5111626,-0.1958686 -0.7070312,0 L 2.6972656,4.4042969 c -0.1958686,0.1958686 -0.1958686,0.5111626 0,0.7070312 L 3.109375,5.5234375 C 2.3875901,6.5389997 1.9998596,7.7540706 2,9 c 0,3.313708 2.6862915,6 6,6 3.313708,0 6,-2.686292 6,-6 1.4e-4,-1.2459294 -0.38759,-2.4610003 -1.109375,-3.4765625 l 0.412109,-0.4121094 c 0.195869,-0.1958686 0.195869,-0.5111626 0,-0.7070312 L 12.595703,3.6972656 c -0.195868,-0.1958686 -0.511163,-0.1958686 -0.707031,0 L 11.476562,4.109375 C 10.738928,3.5851951 9.8922824,3.2346518 9,3.0839844 V 2 h 1.5 c 0.654413,0 0.654413,-1 0,-1 z M 8,5 c 2.209139,0 4,1.790861 4,4 0,2.209139 -1.790861,4 -4,4 C 5.790861,13 4,11.209139 4,9 4,6.790861 5.790861,5 8,5 Z"
       id="path1"
       style="stroke-width:0.875965" />
    <path
       d="m 8,5.015625 -0.8808594,3.5117188 -0.00195,0.00195 C 6.7770681,9.1685233 7.2216446,10 8,10 8.7783531,10 9.2229331,9.1685254 8.8828125,8.5292969 c -6.501e-4,-6.519e-4 -0.0013,-0.0013 -0.00195,-0.00195 z M 5,8.5 C 5.277,8.5 5.5,8.723 5.5,9 5.5,9.277 5.277,9.5 5,9.5 4.723,9.5 4.5,9.277 4.5,9 4.5,8.723 4.723,8.5 5,8.5 Z m 6,0 c 0.277,0 0.5,0.223 0.5,0.5 0,0.277 -0.223,0.5 -0.5,0.5 -0.277,0 -0.5,-0.223 -0.5,-0.5 0,-0.277 0.223,-0.5 0.5,-0.5 z m -3,3 c 0.277,0 0.5,0.223 0.5,0.5 0,0.277 -0.223,0.5 -0.5,0.5 -0.277,0 -0.5,-0.223 -0.5,-0.5 0,-0.277 0.223,-0.5 0.5,-0.5 z"
       id="path2"
       style="stroke-width:0.875965" />
  </g>
</svg>
