<?xml version="1.0" encoding="UTF-8" standalone="no"?>
<svg
   width="75"
   height="24"
   version="1.1"
   id="svg8"
   xmlns="http://www.w3.org/2000/svg"
   xmlns:svg="http://www.w3.org/2000/svg">
  <defs
     id="defs8" />
  <path
     d="M 27.244091,18.295085 31.150339,6.6544658 h 4.374998 l 3.94531,11.6406192 H 35.814399 L 34.509712,13.779462 Q 34.087837,12.310713 33.6894,10.881026 33.290963,9.4435265 32.915963,7.8966527 h 0.875 q -0.390625,1.5468738 -0.796875,2.9843733 -0.40625,1.429687 -0.84375,2.898436 l -1.351562,4.515623 z m 2.914061,-1.914062 v -2.499998 h 6.406247 v 2.499998 z m 9.312496,1.914062 5.015622,-7.117184 v 2.414062 L 39.939397,6.6544658 h 3.664061 l 0.929687,1.5156243 q 0.242188,0.3906246 0.46875,0.7890619 0.234375,0.3906247 0.460937,0.7812493 0.226563,0.3906257 0.445313,0.7812497 H 44.95502 Q 45.189395,10.131027 45.415958,9.7404013 45.64252,9.3497767 45.876895,8.959152 46.119082,8.5607147 46.36127,8.1700901 l 0.945312,-1.5156243 h 3.57031 l -4.406248,6.7499962 v -2.257811 l 4.859373,7.148434 h -3.773435 l -1.265625,-1.999999 q -0.1875,-0.296875 -0.375,-0.59375 -0.179687,-0.296874 -0.367187,-0.585937 -0.179687,-0.296875 -0.367188,-0.59375 h 0.421875 q -0.179687,0.296875 -0.367187,0.59375 -0.179688,0.289063 -0.367187,0.585937 -0.1875,0.296875 -0.390625,0.59375 l -1.335937,1.999999 z m 17.499991,0.1875 q -1.523436,0 -2.648436,-0.53125 -1.125,-0.539062 -1.749999,-1.507811 -0.617188,-0.976563 -0.617188,-2.289062 V 6.6544658 h 3.156249 v 7.2343712 q 0,0.539062 0.242188,0.960937 0.242187,0.414062 0.656249,0.65625 0.421875,0.242187 0.960937,0.242187 0.546875,0 0.960937,-0.234375 0.421875,-0.242187 0.65625,-0.656249 0.242187,-0.421875 0.242187,-0.96875 V 6.6544658 h 3.156249 v 7.4999962 q 0,1.312499 -0.625,2.289062 -0.617187,0.968749 -1.742187,1.507811 -1.124999,0.53125 -2.648436,0.53125 z m 11.140621,0 q -1.609379,0 -2.72656,-0.46875 -1.117187,-0.46875 -1.695313,-1.374999 -0.578125,-0.914062 -0.578125,-2.218749 h 3.07031 q 0.02344,0.468749 0.265624,0.804687 0.250003,0.335937 0.679688,0.515625 0.4375,0.179687 1.02344,0.179687 0.515619,0 0.898434,-0.125 0.382815,-0.132812 0.593747,-0.359375 0.218753,-0.234374 0.218753,-0.539062 0,-0.28125 -0.203125,-0.492187 -0.203125,-0.210938 -0.624996,-0.367187 -0.421878,-0.15625 -1.078131,-0.28125 l -1.156245,-0.21875 q -1.687499,-0.320312 -2.578126,-1.187499 -0.890627,-0.867188 -0.890627,-2.164062 0,-1.1093747 0.601568,-1.9453116 0.601561,-0.8359375 1.671871,-1.3046872 1.07031,-0.4687497 2.484378,-0.4687497 1.453118,0 2.499992,0.4609377 1.046875,0.460937 1.625,1.328124 0.578126,0.867187 0.617189,2.0859368 H 69.84563 Q 69.790945,9.7325892 69.33001,9.3810268 68.876883,9.0294644 68.150324,9.0294644 q -0.453128,0 -0.804693,0.1328127 -0.351559,0.1249999 -0.554684,0.3515624 -0.195311,0.2187497 -0.195311,0.5156245 0,0.28125 0.179683,0.476562 0.17969,0.195313 0.562504,0.34375 0.390622,0.140625 0.992183,0.25 l 0.937505,0.171875 q 0.999997,0.1875 1.718749,0.476562 0.726559,0.289062 1.187494,0.703125 0.460941,0.414062 0.679688,0.960937 0.218753,0.546875 0.218753,1.242187 0,1.218749 -0.58594,2.078124 -0.578125,0.851562 -1.687499,1.304687 -1.109373,0.445312 -2.687496,0.445312 z"
     id="text2"
     style="font-size:242.231px;line-height:0.6;font-family:'Adwaita Sans';-inkscape-font-specification:'Adwaita Sans, @opsz=32,wght=900';font-variation-settings:'opsz' 32, 'wght' 900;display:inline;fill:#e0e0e0;fill-opacity:1;stroke:none;stroke-width:0;stroke-miterlimit:5;paint-order:stroke markers fill"
     aria-label="AXUS" />
  <g
     id="g3"
     transform="matrix(0.06153127,0,0,0.06153127,-4.1990386,-0.64201251)"
     style="fill:#e0e0e0;fill-opacity:1;stroke:none;stroke-width:16.2518">
    <g
       id="g7"
       transform="matrix(22.881774,0,0,22.881774,78.770834,23.617156)"
       style="display:inline;fill:#e0e0e0;fill-opacity:1;stroke:none;stroke-width:0.710258">
      <g
         id="g36"
         transform="matrix(2.8797014,0,0,2.8797014,0.17768061,0.1440069)"
         style="fill:#e0e0e0;fill-opacity:1;stroke:none;stroke-width:0;stroke-dasharray:none">
        <path
           d="M 1.2363844,2.0055718 0.61538448,1.6463506 0.61296141,3.7864216 1.2349997,3.4268536 Z"
           style="display:inline;fill:#e0e0e0;fill-opacity:1;stroke:none;stroke-width:0;stroke-miterlimit:5;stroke-dasharray:none;stroke-opacity:1;paint-order:stroke markers fill"
           id="path20" />
        <path
           d="M 1.3533843,3.6092381 0.70538451,3.9840626 2.606461,5.083571 V 4.3353089 Z"
           style="display:inline;fill:#e0e0e0;fill-opacity:1;stroke:none;stroke-width:0;stroke-miterlimit:5;stroke-dasharray:none;stroke-opacity:1;paint-order:stroke markers fill"
           id="path19" />
        <path
           d="M 2.8231532,4.3269872 V 5.0759427 L 4.7152297,3.9788616 4.0679222,3.6040371 Z"
           style="display:inline;fill:#e0e0e0;fill-opacity:1;stroke:none;stroke-width:0;stroke-miterlimit:5;stroke-dasharray:none;stroke-opacity:1;paint-order:stroke markers fill"
           id="path18" />
        <path
           d="M 4.1904606,3.4244264 4.817345,3.787115 4.8197681,1.6432299 4.1918453,2.0059185 Z"
           style="display:inline;fill:#e0e0e0;fill-opacity:1;stroke:none;stroke-width:0;stroke-miterlimit:5;stroke-dasharray:none;stroke-opacity:1;paint-order:stroke markers fill"
           id="path17" />
        <path
           d="M 2.8231532,0.33845222 V 1.0315829 L 4.1323067,1.7899003 4.7328835,1.4424682 Z"
           style="display:inline;fill:#e0e0e0;fill-opacity:1;stroke:none;stroke-width:0;stroke-miterlimit:5;stroke-dasharray:none;stroke-opacity:1;paint-order:stroke markers fill"
           id="path16" />
        <path
           d="M 2.606461,1.0267285 V 0.33567839 L 0.69707678,1.4424682 1.2948843,1.7885134 Z"
           style="display:inline;fill:#e0e0e0;fill-opacity:1;stroke:none;stroke-width:0;stroke-miterlimit:5;stroke-dasharray:none;stroke-opacity:1;paint-order:stroke markers fill"
           id="path15" />
      </g>
      <g
         id="g6-6"
         transform="matrix(0.01472698,0,0,0.01472698,0.45978624,-0.1823752)"
         style="fill:#e0e0e0;fill-opacity:1;stroke:none;stroke-width:48.2284">
        <path
           id="path3-3"
           style="font-size:540.059px;font-family:'Adwaita Sans';-inkscape-font-specification:'Adwaita Sans, @opsz=32,wght=700';font-variation-settings:'opsz' 32, 'wght' 700;text-align:center;text-anchor:middle;display:inline;fill:#e0e0e0;fill-opacity:1;stroke:none;stroke-width:0;stroke-miterlimit:5;stroke-dasharray:none;paint-order:stroke markers fill"
           d="M 459.78711,315.54297 321.87109,708.45703 h 87.54883 l 28.60742,-85.70312 h -28.60742 v -64.86914 h 50.25977 l 13.55664,-40.61133 c 7.91102,-25.13947 15.8214,-50.98148 23.73242,-77.52735 4.79932,-15.85863 9.87778,-32.98745 15.23437,-51.38476 -3.55534,-12.60201 -7.22785,-25.7986 -11.01562,-39.5918 h 22.41602 c -3.93071,13.7932 -7.73117,26.98979 -11.4004,39.5918 5.19035,18.39731 10.13314,35.52613 14.82813,51.38476 8.08682,26.54587 15.90933,52.38788 23.46875,77.52735 l 13.10742,40.61133 h 51.23633 v 64.86914 h -30.29883 l 27.66211,85.70312 h 89.92188 L 564.21289,315.54297 Z m -0.10742,242.3418 h -50.25977 v 64.86914 h 28.60742 z m 52.52343,-169.52344 c 3.66923,-12.60201 7.46969,-25.7986 11.4004,-39.5918 H 501.1875 c 3.78777,13.7932 7.46028,26.98979 11.01562,39.5918 z m 72.3418,234.39258 h 30.29883 v -64.86914 h -51.23633 z" />
        <path
           id="rect6"
           style="font-variation-settings:'opsz' 32, 'wght' 700;display:inline;fill:#e0e0e0;fill-opacity:1;stroke:none;stroke-width:0;stroke-miterlimit:5;stroke-dasharray:none;paint-order:stroke markers fill"
           d="m 473.85106,592.72927 76.29788,-1.43311 13.83614,61.23271 H 460.01492 Z" />
      </g>
    </g>
  </g>
</svg>
