<?xml version="1.0" encoding="UTF-8" standalone="no"?>
<svg
   width="135"
   height="24"
   stroke-linejoin="round"
   version="1.1"
   id="svg7"
   xmlns="http://www.w3.org/2000/svg"
   xmlns:svg="http://www.w3.org/2000/svg">
  <defs
     id="defs7" />
  <g
     id="g36"
     transform="matrix(4.648582,0,0,4.648582,-1.5897602,-0.59591258)"
     style="stroke-width:0.81305">
    <path
       d="M 1.2363844,2.0055718 0.61538448,1.6463506 0.61296141,3.7864216 1.2349997,3.4268536 Z"
       style="display:inline;fill:#e0e0e0;fill-opacity:1;stroke:none;stroke-width:0.10756;stroke-miterlimit:5;stroke-dasharray:none;stroke-opacity:1;paint-order:stroke markers fill"
       id="path20-2" />
    <path
       d="M 1.3533843,3.6092381 0.70538451,3.9840626 2.606461,5.083571 V 4.3353089 Z"
       style="display:inline;fill:#e0e0e0;fill-opacity:1;stroke:none;stroke-width:0.10756;stroke-miterlimit:5;stroke-dasharray:none;stroke-opacity:1;paint-order:stroke markers fill"
       id="path19-2" />
    <path
       d="M 2.8231532,4.3269872 V 5.0759427 L 4.7152297,3.9788616 4.0679222,3.6040371 Z"
       style="display:inline;fill:#e0e0e0;fill-opacity:1;stroke:none;stroke-width:0.10756;stroke-miterlimit:5;stroke-dasharray:none;stroke-opacity:1;paint-order:stroke markers fill"
       id="path18-6" />
    <path
       d="M 4.1904606,3.4244264 4.817345,3.787115 4.8197681,1.6432299 4.1918453,2.0059185 Z"
       style="display:inline;fill:#e0e0e0;fill-opacity:1;stroke:none;stroke-width:0.10756;stroke-miterlimit:5;stroke-dasharray:none;stroke-opacity:1;paint-order:stroke markers fill"
       id="path17-1" />
    <path
       d="M 2.8231532,0.33845222 V 1.0315829 L 4.1323067,1.7899003 4.7328835,1.4424682 Z"
       style="display:inline;fill:#e0e0e0;fill-opacity:1;stroke:none;stroke-width:0.10756;stroke-miterlimit:5;stroke-dasharray:none;stroke-opacity:1;paint-order:stroke markers fill"
       id="path16-0" />
    <path
       d="M 2.606461,1.0267285 V 0.33567839 L 0.69707678,1.4424682 1.2948843,1.7885134 Z"
       style="display:inline;fill:#e0e0e0;fill-opacity:1;stroke:none;stroke-width:0.10756;stroke-miterlimit:5;stroke-dasharray:none;stroke-opacity:1;paint-order:stroke markers fill"
       id="path15-6" />
    <path
       style="font-size:3.52778px;font-family:'Adwaita Mono';-inkscape-font-specification:'Adwaita Mono, @opsz=32';font-variation-settings:'opsz' 32;text-align:center;text-anchor:middle;fill:#e0e0e0;stroke:#e0e0e0;stroke-width:0.264583;stroke-miterlimit:5;stroke-dasharray:none;paint-order:stroke markers fill"
       d="m 3.1641065,4.4527742 q -0.1128123,0 -0.2299643,-0.030372 Q 2.8213296,4.3963679 2.7258727,4.3312837 2.6304158,4.2618605 2.5609926,4.1664035 2.4959084,4.0709468 2.4568579,3.9624731 2.4178073,3.8539994 2.4004516,3.7411867 2.3874347,3.624035 2.3874347,3.5068834 v -1.345074 h 0.3601327 v 1.345074 q 0,0.078101 0.00868,0.1605411 0.013016,0.078101 0.04339,0.1518632 0.030372,0.073762 0.08244,0.1388464 0.052067,0.060745 0.1171515,0.1041351 0.069424,0.039051 0.1475243,0.056406 0.08244,0.013016 0.160541,0.013016 0.078101,0 0.1562022,-0.013016 0.08244,-0.017356 0.1475242,-0.056406 0.069424,-0.04339 0.1214908,-0.1041351 0.052067,-0.065085 0.08244,-0.1388464 0.030372,-0.073762 0.039051,-0.1518632 0.013016,-0.08244 0.013016,-0.1605411 V 2.1618094 H 4.2271488 V 4.4180626 H 3.867016 V 3.9841678 Q 3.8279655,4.0883029 3.7585429,4.1794205 3.6891204,4.2705379 3.593663,4.3356225 3.5025455,4.4007071 3.3897323,4.42674 3.281258,4.452774 3.1641065,4.4527742 Z"
       id="text1"
       aria-label="u"
       transform="matrix(0.81304958,0,0,0.81304958,0.02737259,0.02063253)" />
  </g>
  <path
     d="M 34.064222,18.403601 V 6.1508052 h 8.790764 v 2.170965 h -6.257971 v 2.8370568 h 5.789239 v 2.113403 h -5.789239 v 2.960406 h 6.257971 v 2.170965 z m 9.423963,0 3.503147,-4.991575 -0.04934,1.077259 -3.240001,-4.7695447 h 2.647919 l 0.764772,1.2170557 q 0.328934,0.550965 0.624975,1.069036 0.29604,0.518071 0.592082,1.036143 h -0.772996 q 0.312487,-0.518072 0.608528,-1.036143 0.296041,-0.518071 0.641422,-1.069036 l 0.781218,-1.2170557 h 2.606803 l -3.322235,4.7695447 0.04934,-1.077259 3.412692,4.991575 h -2.656143 l -0.871675,-1.332183 q -0.320711,-0.542742 -0.616751,-1.036143 -0.296041,-0.501624 -0.600306,-1.00325 h 0.674316 q -0.312488,0.501626 -0.608528,1.00325 -0.296041,0.493401 -0.633198,1.036143 l -0.888122,1.332183 z m 12.8531,0.180913 q -0.921015,0 -1.611778,-0.394721 Q 54.046969,17.786848 53.668695,17.022077 53.29042,16.249082 53.29042,15.155376 V 9.7197403 h 2.425891 v 4.9915747 q 0,0.871675 0.41939,1.332184 0.419391,0.452285 1.175939,0.452285 0.501625,0 0.879899,-0.205584 0.386498,-0.205584 0.600305,-0.641423 0.222031,-0.435838 0.222031,-1.101929 V 9.7197403 h 2.417665 v 8.6838607 h -2.376549 v -2.261423 h 0.411168 q -0.411168,1.15127 -1.175939,1.800915 -0.756549,0.641421 -1.948935,0.641421 z m 10.418986,0.03289 q -1.126598,0 -2.006497,-0.345381 -0.879899,-0.353604 -1.406195,-1.011473 -0.526293,-0.657868 -0.608526,-1.587106 h 2.384772 q 0.06579,0.56741 0.476954,0.888122 0.411167,0.32071 1.118376,0.32071 0.674314,0 1.05259,-0.254924 0.386496,-0.254923 0.386496,-0.657868 0,-0.345381 -0.296041,-0.559188 -0.287816,-0.213807 -0.822334,-0.312487 l -1.52132,-0.296039 q -1.266398,-0.2467 -1.924265,-0.888122 -0.657869,-0.64142 -0.657869,-1.64467 0,-0.822335 0.444061,-1.439086 0.452285,-0.616753 1.27462,-0.9539106 0.830558,-0.337157 1.965382,-0.337157 1.126598,0 1.96538,0.361828 0.838783,0.3536036 1.307514,1.0114726 0.476954,0.657868 0.501624,1.562436 h -2.244975 q -0.0082,-0.526294 -0.411167,-0.871674 -0.402945,-0.345381 -1.052589,-0.345381 -0.624976,0 -0.97858,0.27137 -0.353604,0.263148 -0.353604,0.649646 0,0.337157 0.279595,0.550963 0.279593,0.213808 0.772994,0.320712 l 1.644671,0.320711 q 1.315736,0.254923 1.932487,0.838781 0.624976,0.575634 0.624976,1.537767 0,0.863452 -0.493402,1.513097 -0.485177,0.641422 -1.356852,1.003249 -0.863453,0.353604 -1.998276,0.353604 z m 8.815436,-0.213805 V 6.1508052 h 8.790763 v 2.170965 h -6.257971 v 2.8370568 h 5.789241 v 2.113403 h -5.789241 v 2.960406 h 6.257971 v 2.170965 z m 12.606397,-4.827108 v 4.827108 H 85.756215 V 9.7197403 h 2.384771 v 2.2614227 h -0.411167 q 0.411167,-1.151269 1.175939,-1.792692 0.764772,-0.6496447 1.948935,-0.6496447 0.929238,0 1.611776,0.4029448 0.682539,0.3947199 1.052589,1.1594919 0.378275,0.764773 0.378275,1.866702 v 5.435636 h -2.417666 v -4.991575 q 0,-0.871676 -0.419391,-1.32396 -0.411167,-0.460507 -1.175938,-0.460507 -0.501626,0 -0.888124,0.205584 -0.386496,0.205583 -0.600304,0.64142 -0.213806,0.427616 -0.213806,1.10193 z m 11.537362,8.379595 q -1.233503,0 -2.096955,-0.353604 -0.855229,-0.34538 -1.34863,-0.978577 -0.485178,-0.633198 -0.608529,-1.480204 h 2.335433 q 0.09045,0.328935 0.320711,0.559188 0.238477,0.230253 0.592081,0.345381 0.353605,0.123356 0.805889,0.123356 0.888124,0 1.365074,-0.485179 0.48518,-0.485178 0.48518,-1.42264 v -1.332183 h -0.008 q -0.25492,0.509848 -0.64142,0.838782 -0.37827,0.328935 -0.87167,0.485177 -0.485184,0.156244 -1.052595,0.156244 -1.134823,0 -1.981827,-0.567411 -0.847005,-0.567411 -1.315736,-1.562438 -0.460508,-0.995024 -0.460508,-2.286091 0,-1.307514 0.46873,-2.310762 0.476956,-1.011473 1.315736,-1.578884 0.847007,-0.5674115 1.957159,-0.5674115 0.567411,0 1.044361,0.1562442 0.48518,0.1562429 0.87168,0.4769533 0.39472,0.320711 0.66609,0.80589 h 0.008 V 9.7197473 h 2.393 v 8.3467037 q 0,1.373299 -0.53452,2.228528 -0.53452,0.863453 -1.49665,1.258173 -0.95391,0.402944 -2.212084,0.402944 z m -0.09869,-5.484976 q 0.616754,0 1.069034,-0.304263 0.46051,-0.312488 0.71543,-0.879899 0.25493,-0.567411 0.25493,-1.32396 0,-0.756547 -0.25493,-1.315736 -0.25492,-0.567411 -0.71543,-0.871675 -0.45228,-0.312487 -1.069034,-0.312487 -0.583859,0 -1.019696,0.29604 -0.435838,0.287817 -0.682539,0.847005 -0.238477,0.559189 -0.238477,1.356853 0,0.797666 0.238477,1.356853 0.246701,0.559189 0.682539,0.855229 0.435837,0.29604 1.019696,0.29604 z m 6.060614,1.932489 V 9.7197403 h 2.42589 v 8.6838607 z m 1.20884,-9.7775627 q -0.60031,0 -0.99503,-0.3618275 -0.39473,-0.3700508 -0.39473,-0.9292387 0,-0.559188 0.39473,-0.9210155 0.39472,-0.3700509 0.9868,-0.3700509 0.60031,0 0.99503,0.3700509 0.39471,0.3618275 0.39471,0.9210155 0,0.5591879 -0.39471,0.9292387 -0.39472,0.3618275 -0.9868,0.3618275 z m 5.3534,4.9504587 v 4.827108 h -2.42589 V 9.7197403 h 2.38477 v 2.2614227 h -0.41117 q 0.41117,-1.151269 1.17594,-1.792692 0.76478,-0.6496447 1.94894,-0.6496447 0.92923,0 1.61177,0.4029448 0.68254,0.3947199 1.05259,1.1594919 0.37827,0.764773 0.37827,1.866702 v 5.435636 h -2.41766 v -4.991575 q 0,-0.871676 -0.41939,-1.32396 -0.41117,-0.460507 -1.17595,-0.460507 -0.50161,0 -0.88811,0.205584 -0.38651,0.205583 -0.60031,0.64142 -0.2138,0.427616 -0.2138,1.10193 z m 11.39756,5.024468 q -1.31573,0 -2.29432,-0.575635 -0.97035,-0.583857 -1.51309,-1.611776 -0.53452,-1.027919 -0.53452,-2.343655 0,-1.332184 0.54274,-2.351879 0.55097,-1.02792 1.5131,-1.611778 0.96213,-0.5838586 2.20385,-0.5838586 0.96214,0 1.74336,0.3289341 0.78122,0.3207105 1.34863,0.9292395 0.56741,0.600305 0.87168,1.42264 0.31248,0.822335 0.31248,1.817361 v 0.649645 h -7.67238 v -1.54599 h 6.50467 l -1.0937,0.370051 q 0,-0.657868 -0.23848,-1.134824 -0.23848,-0.476954 -0.68254,-0.731877 -0.43584,-0.263147 -1.04437,-0.263147 -0.6003,0 -1.03614,0.263147 -0.43584,0.254923 -0.67432,0.731877 -0.23847,0.476956 -0.23847,1.134824 v 1.052588 q 0,0.674316 0.23847,1.184162 0.24671,0.501626 0.70721,0.781219 0.46051,0.271371 1.11016,0.271371 0.47695,0 0.83878,-0.131574 0.37005,-0.139797 0.61675,-0.386498 0.25493,-0.254923 0.36183,-0.59208 h 2.21208 q -0.15625,0.863452 -0.73188,1.521321 -0.57564,0.657867 -1.44731,1.036141 -0.87167,0.370051 -1.92426,0.370051 z"
     id="text2"
     style="font-weight:bold;font-size:13.3333px;font-family:'Adwaita Sans';-inkscape-font-specification:'Adwaita Sans, Bold';text-align:center;text-anchor:middle;fill:#e0e0e0;stroke-width:0;stroke-miterlimit:5;paint-order:stroke markers fill"
     aria-label="Exus Engine" />
</svg>
