<?xml version="1.0" encoding="UTF-8" standalone="no"?>
<svg
   width="1624"
   height="414"
   version="1.1"
   id="svg8"
   xmlns="http://www.w3.org/2000/svg"
   xmlns:svg="http://www.w3.org/2000/svg">
  <defs
     id="defs8" />
  <g
     id="g36"
     transform="matrix(72.863594,0,0,72.863594,-13.887062,9.5670063)"
     style="stroke:#ffffff;stroke-width:0.137243;stroke-dasharray:none;stroke-opacity:1">
    <path
       d="M 1.2363844,2.0055718 0.61538448,1.6463506 0.61296141,3.7864216 1.2349997,3.4268536 Z"
       style="display:inline;fill:#e0e0e0;fill-opacity:1;stroke:#ffffff;stroke-width:0.137243;stroke-miterlimit:5;stroke-dasharray:none;stroke-opacity:1;paint-order:stroke markers fill"
       id="path20" />
    <path
       d="M 1.3533843,3.6092381 0.70538451,3.9840626 2.606461,5.083571 V 4.3353089 Z"
       style="display:inline;fill:#e0e0e0;fill-opacity:1;stroke:#ffffff;stroke-width:0.137243;stroke-miterlimit:5;stroke-dasharray:none;stroke-opacity:1;paint-order:stroke markers fill"
       id="path19" />
    <path
       d="M 2.8231532,4.3269872 V 5.0759427 L 4.7152297,3.9788616 4.0679222,3.6040371 Z"
       style="display:inline;fill:#e0e0e0;fill-opacity:1;stroke:#ffffff;stroke-width:0.137243;stroke-miterlimit:5;stroke-dasharray:none;stroke-opacity:1;paint-order:stroke markers fill"
       id="path18" />
    <path
       d="M 4.1904606,3.4244264 4.817345,3.787115 4.8197681,1.6432299 4.1918453,2.0059185 Z"
       style="display:inline;fill:#e0e0e0;fill-opacity:1;stroke:#ffffff;stroke-width:0.137243;stroke-miterlimit:5;stroke-dasharray:none;stroke-opacity:1;paint-order:stroke markers fill"
       id="path17" />
    <path
       d="M 2.8231532,0.33845222 V 1.0315829 L 4.1323067,1.7899003 4.7328835,1.4424682 Z"
       style="display:inline;fill:#e0e0e0;fill-opacity:1;stroke:#ffffff;stroke-width:0.137243;stroke-miterlimit:5;stroke-dasharray:none;stroke-opacity:1;paint-order:stroke markers fill"
       id="path16" />
    <path
       d="M 2.606461,1.0267285 V 0.33567839 L 0.69707678,1.4424682 1.2948843,1.7885134 Z"
       style="display:inline;fill:#e0e0e0;fill-opacity:1;stroke:#ffffff;stroke-width:0.137243;stroke-miterlimit:5;stroke-dasharray:none;stroke-opacity:1;paint-order:stroke markers fill"
       id="path15" />
    <path
       style="font-size:3.52778px;font-family:'Adwaita Mono';-inkscape-font-specification:'Adwaita Mono, @opsz=32';font-variation-settings:'opsz' 32;text-align:center;text-anchor:middle;fill:#e0e0e0;stroke:#ffffff;stroke-width:0.1688;stroke-miterlimit:5;stroke-dasharray:none;stroke-opacity:1;paint-order:stroke markers fill"
       d="m 3.1641065,4.4527742 q -0.1128123,0 -0.2299643,-0.030372 Q 2.8213296,4.3963679 2.7258727,4.3312837 2.6304158,4.2618605 2.5609926,4.1664035 2.4959084,4.0709468 2.4568579,3.9624731 2.4178073,3.8539994 2.4004516,3.7411867 2.3874347,3.624035 2.3874347,3.5068834 v -1.345074 h 0.3601327 v 1.345074 q 0,0.078101 0.00868,0.1605411 0.013016,0.078101 0.04339,0.1518632 0.030372,0.073762 0.08244,0.1388464 0.052067,0.060745 0.1171515,0.1041351 0.069424,0.039051 0.1475243,0.056406 0.08244,0.013016 0.160541,0.013016 0.078101,0 0.1562022,-0.013016 0.08244,-0.017356 0.1475242,-0.056406 0.069424,-0.04339 0.1214908,-0.1041351 0.052067,-0.065085 0.08244,-0.1388464 0.030372,-0.073762 0.039051,-0.1518632 0.013016,-0.08244 0.013016,-0.1605411 V 2.1618094 H 4.2271488 V 4.4180626 H 3.867016 V 3.9841678 Q 3.8279655,4.0883029 3.7585429,4.1794205 3.6891204,4.2705379 3.593663,4.3356225 3.5025455,4.4007071 3.3897323,4.42674 3.281258,4.452774 3.1641065,4.4527742 Z"
       id="text1"
       aria-label="u"
       transform="matrix(0.81304958,0,0,0.81304958,0.02737259,0.02063253)" />
    <path
       d="M 439.26725,291.75861 V 122.70108 h 121.29027 v 29.95382 h -86.34415 v 39.14419 h 79.87685 v 29.15959 h -79.87685 v 40.84611 h 86.34415 v 29.95382 z m 130.0268,0 48.33457,-68.87109 -0.68077,14.86345 -44.70381,-65.80763 h 36.53458 l 10.55192,16.79229 q 4.53845,7.60192 8.62307,14.74999 4.08461,7.14807 8.16922,14.29614 h -10.66538 q 4.31154,-7.14807 8.39615,-14.29614 4.08461,-7.14807 8.84999,-14.74999 l 10.77884,-16.79229 h 35.96727 l -45.83842,65.80763 0.68077,-14.86345 47.08649,68.87109 H 654.7305 l -12.02691,-18.38076 q -4.42499,-7.48845 -8.50961,-14.29614 -4.08461,-6.92114 -8.28268,-13.84229 h 9.30384 q -4.31154,6.92115 -8.39615,13.84229 -4.08461,6.80769 -8.73653,14.29614 l -12.25383,18.38076 z m 177.34021,2.49615 q -12.70768,0 -22.23844,-5.44615 -9.4173,-5.55961 -14.63652,-16.11152 -5.21923,-10.66538 -5.21923,-25.75575 v -74.998 h 33.47112 v 68.87109 q 0,12.02691 5.78653,18.38075 5.78654,6.24037 16.22499,6.24037 6.92115,0 12.14037,-2.83653 5.33269,-2.83654 8.28269,-8.84999 3.06345,-6.01346 3.06345,-15.20383 v -66.60186 h 33.35766 v 119.81527 h -32.79035 v -31.2019 h 5.67307 q -5.67307,15.8846 -16.22498,24.84806 -10.43845,8.84999 -26.89036,8.84999 z m 143.75563,0.45384 q -15.54422,0 -27.68459,-4.76538 -12.14037,-4.87884 -19.4019,-13.95575 -7.26153,-9.07692 -8.39615,-21.89806 h 32.90382 q 0.90769,7.82884 6.58076,12.25384 5.67307,4.42499 15.43075,4.42499 9.30384,0 14.52307,-3.5173 5.33268,-3.51731 5.33268,-9.07692 0,-4.76538 -4.08461,-7.71537 -3.97115,-2.95 -11.34614,-4.31154 l -20.99037,-4.08461 q -17.47306,-3.40384 -26.54997,-12.25383 -9.07691,-8.84999 -9.07691,-22.69229 0,-11.34614 6.12691,-19.85575 6.24038,-8.50961 17.58652,-13.16152 11.45961,-4.65192 27.11729,-4.65192 15.54421,0 27.11728,4.9923 11.57306,4.87884 18.04036,13.95576 6.58077,9.07691 6.92115,21.55767 h -30.97497 q -0.11346,-7.26153 -5.67307,-12.02691 -5.55961,-4.76538 -14.52306,-4.76538 -8.62307,0 -13.50191,3.74422 -4.87884,3.63077 -4.87884,8.96346 0,4.65191 3.85768,7.60191 3.85769,2.95 10.66538,4.425 l 22.69228,4.42499 q 18.15383,3.51731 26.66344,11.57307 8.62307,7.9423 8.62307,21.21728 0,11.91345 -6.80769,20.87691 -6.69422,8.84999 -18.72113,13.84229 -11.91345,4.87884 -27.57113,4.87884 z m 121.63061,-2.94999 V 122.70108 h 121.2903 v 29.95382 h -86.3441 v 39.14419 h 79.8768 v 29.15959 h -79.8768 v 40.84611 h 86.3441 v 29.95382 z m 173.9364,-66.60186 v 66.60186 h -33.4711 V 171.94334 h 32.9038 v 31.20189 h -5.6731 q 5.6731,-15.8846 16.225,-24.73459 10.5519,-8.96345 26.8904,-8.96345 12.8211,0 22.2384,5.55961 9.4173,5.44615 14.5231,15.99806 5.2192,10.55191 5.2192,25.75574 v 74.99801 h -33.3577 v -68.87109 q 0,-12.02691 -5.7865,-18.26729 -5.6731,-6.35384 -16.225,-6.35384 -6.9211,0 -12.2538,2.83654 -5.3327,2.83653 -8.2827,8.84999 -2.95,5.89999 -2.95,15.20383 z m 159.1864,115.61719 q -17.0192,0 -28.9326,-4.87884 -11.8,-4.76538 -18.6077,-13.50191 -6.6942,-8.73653 -8.3962,-20.42306 h 32.2231 q 1.2481,4.53846 4.425,7.71538 3.2904,3.17692 8.1692,4.76538 4.8788,1.70192 11.1192,1.70192 12.2538,0 18.8346,-6.69422 6.6942,-6.69423 6.6942,-19.62883 v -18.38075 h -0.1134 q -3.5173,7.03461 -8.85,11.57307 -5.2192,4.53845 -12.0269,6.69422 -6.6943,2.15577 -14.5231,2.15577 -15.6577,0 -27.3442,-7.82884 -11.6865,-7.82884 -18.1538,-21.55767 -6.3539,-13.72884 -6.3539,-31.54228 0,-18.04037 6.4673,-31.88266 6.5808,-13.95576 18.1539,-21.78459 11.6865,-7.82884 27.0038,-7.82884 7.8288,0 14.4096,2.15576 6.6942,2.15577 12.0269,6.58077 5.4461,4.42499 9.1904,11.11922 h 0.1134 v -17.3596 h 33.0173 v 115.16335 q 0,18.94806 -7.375,30.74804 -7.375,11.91345 -20.65,17.3596 -13.1615,5.55961 -30.5211,5.55961 z m -1.3615,-75.67877 q 8.5096,0 14.75,-4.19807 6.3538,-4.31154 9.8711,-12.14038 3.5173,-7.82883 3.5173,-18.26728 0,-10.43846 -3.5173,-18.15383 -3.5173,-7.82884 -9.8711,-12.02691 -6.2404,-4.31154 -14.75,-4.31154 -8.0558,0 -14.0692,4.08461 -6.0135,3.97115 -9.4173,11.68653 -3.2904,7.71538 -3.2904,18.72114 0,11.00575 3.2904,18.72113 3.4038,7.71538 9.4173,11.79999 6.0134,4.08461 14.0692,4.08461 z m 83.621,26.66344 V 171.94334 h 33.4712 v 119.81527 z m 16.6789,-134.90564 q -8.2827,0 -13.7289,-4.9923 -5.4461,-5.10577 -5.4461,-12.82115 0,-7.71537 5.4461,-12.70768 5.4462,-5.10576 13.6154,-5.10576 8.2827,0 13.7288,5.10576 5.4462,4.99231 5.4462,12.70768 0,7.71538 -5.4462,12.82115 -5.4461,4.9923 -13.6153,4.9923 z m 95.0806,137.62871 q -18.1538,0 -31.6558,-7.9423 -13.3884,-8.05576 -20.8769,-22.23844 -7.3749,-14.18268 -7.3749,-32.33651 0,-18.38075 7.4884,-32.44996 7.6019,-14.18268 20.8769,-22.23844 13.275,-8.05577 30.4077,-8.05577 13.275,0 24.0538,4.53846 10.7788,4.425 18.6077,12.82114 7.8288,8.28269 12.0269,19.62883 4.3115,11.34614 4.3115,25.07498 v 8.96345 h -105.8595 v -21.33075 h 89.748 l -15.0904,5.10576 q 0,-9.07691 -3.2904,-15.65767 -3.2903,-6.58077 -9.4173,-10.09807 -6.0134,-3.63077 -14.4096,-3.63077 -8.2826,0 -14.2961,3.63077 -6.0135,3.5173 -9.3038,10.09807 -3.2904,6.58076 -3.2904,15.65767 v 14.52307 q 0,9.30383 3.2904,16.33844 3.4038,6.92115 9.7576,10.77884 6.3539,3.74422 15.3173,3.74422 6.5808,0 11.5731,-1.81538 5.1058,-1.92884 8.5096,-5.33269 3.5173,-3.5173 4.9923,-8.16922 h 30.5211 q -2.1557,11.91345 -10.098,20.99037 -7.9423,9.07691 -19.9692,14.29614 -12.027,5.10576 -26.55,5.10576 z"
       id="text8"
       style="font-weight:bold;font-size:232.369px;font-family:'Adwaita Sans';-inkscape-font-specification:'Adwaita Sans, Bold';fill:#e0e0e0;stroke:#ffffff;stroke-width:10;stroke-miterlimit:5;stroke-dasharray:none;stroke-opacity:1;paint-order:stroke markers fill"
       aria-label="Exus Engie"
       transform="matrix(0.01372427,0,0,0.01372427,0.19058986,-0.13130023)" />
  </g>
</svg>
