<?xml version="1.0" encoding="UTF-8" standalone="no"?>
<!-- Created with Inkscape (http://www.inkscape.org/) -->

<svg
   version="1.1"
   id="svg1"
   width="1000"
   height="414"
   viewBox="0 0 1000 414"
   xmlns="http://www.w3.org/2000/svg"
   xmlns:svg="http://www.w3.org/2000/svg">
  <defs
     id="defs1" />
  <g
     id="g3"
     transform="translate(-15.642712,1.5432898)"
     style="stroke:#000000;stroke-opacity:1">
    <g
       id="g7"
       transform="matrix(24.399281,0,0,24.399281,36.351885,11.557651)"
       style="display:inline;fill:#999999;stroke:#ffffff;stroke-width:0.204924;stroke-dasharray:none;stroke-opacity:1">
      <g
         id="g36"
         transform="matrix(2.8797014,0,0,2.8797014,0.17768061,0.1440069)"
         style="fill:#999999;stroke:#ffffff;stroke-width:0.0711616;stroke-dasharray:none;stroke-opacity:1">
        <path
           d="M 1.2363844,2.0055718 0.61538448,1.6463506 0.61296141,3.7864216 1.2349997,3.4268536 Z"
           style="display:inline;fill:#999999;fill-opacity:1;stroke:#ffffff;stroke-width:0.0711616;stroke-miterlimit:5;stroke-dasharray:none;stroke-opacity:1;paint-order:stroke markers fill"
           id="path20" />
        <path
           d="M 1.3533843,3.6092381 0.70538451,3.9840626 2.606461,5.083571 V 4.3353089 Z"
           style="display:inline;fill:#999999;fill-opacity:1;stroke:#ffffff;stroke-width:0.0711616;stroke-miterlimit:5;stroke-dasharray:none;stroke-opacity:1;paint-order:stroke markers fill"
           id="path19" />
        <path
           d="M 2.8231532,4.3269872 V 5.0759427 L 4.7152297,3.9788616 4.0679222,3.6040371 Z"
           style="display:inline;fill:#999999;fill-opacity:1;stroke:#ffffff;stroke-width:0.0711616;stroke-miterlimit:5;stroke-dasharray:none;stroke-opacity:1;paint-order:stroke markers fill"
           id="path18" />
        <path
           d="M 4.1904606,3.4244264 4.817345,3.787115 4.8197681,1.6432299 4.1918453,2.0059185 Z"
           style="display:inline;fill:#999999;fill-opacity:1;stroke:#ffffff;stroke-width:0.0711616;stroke-miterlimit:5;stroke-dasharray:none;stroke-opacity:1;paint-order:stroke markers fill"
           id="path17" />
        <path
           d="M 2.8231532,0.33845222 V 1.0315829 L 4.1323067,1.7899003 4.7328835,1.4424682 Z"
           style="display:inline;fill:#999999;fill-opacity:1;stroke:#ffffff;stroke-width:0.0711616;stroke-miterlimit:5;stroke-dasharray:none;stroke-opacity:1;paint-order:stroke markers fill"
           id="path16" />
        <path
           d="M 2.606461,1.0267285 V 0.33567839 L 0.69707678,1.4424682 1.2948843,1.7885134 Z"
           style="display:inline;fill:#999999;fill-opacity:1;stroke:#ffffff;stroke-width:0.0711616;stroke-miterlimit:5;stroke-dasharray:none;stroke-opacity:1;paint-order:stroke markers fill"
           id="path15" />
      </g>
      <g
         id="g6"
         transform="matrix(0.01472698,0,0,0.01472698,0.45978624,-0.1823752)"
         style="fill:#999999;stroke:#ffffff;stroke-width:13.9149;stroke-dasharray:none;stroke-opacity:1">
        <path
           id="path3"
           style="font-size:540.059px;font-family:'Adwaita Sans';-inkscape-font-specification:'Adwaita Sans, @opsz=32,wght=700';font-variation-settings:'opsz' 32, 'wght' 700;text-align:center;text-anchor:middle;display:inline;fill:#999999;stroke:#ffffff;stroke-width:13.9149;stroke-miterlimit:5;stroke-dasharray:none;stroke-opacity:1;paint-order:stroke markers fill"
           d="M 459.78711,315.54297 321.87109,708.45703 h 87.54883 l 28.60742,-85.70312 h -28.60742 v -64.86914 h 50.25977 l 13.55664,-40.61133 c 7.91102,-25.13947 15.8214,-50.98148 23.73242,-77.52735 4.79932,-15.85863 9.87778,-32.98745 15.23437,-51.38476 -3.55534,-12.60201 -7.22785,-25.7986 -11.01562,-39.5918 h 22.41602 c -3.93071,13.7932 -7.73117,26.98979 -11.4004,39.5918 5.19035,18.39731 10.13314,35.52613 14.82813,51.38476 8.08682,26.54587 15.90933,52.38788 23.46875,77.52735 l 13.10742,40.61133 h 51.23633 v 64.86914 h -30.29883 l 27.66211,85.70312 h 89.92188 L 564.21289,315.54297 Z m -0.10742,242.3418 h -50.25977 v 64.86914 h 28.60742 z m 52.52343,-169.52344 c 3.66923,-12.60201 7.46969,-25.7986 11.4004,-39.5918 H 501.1875 c 3.78777,13.7932 7.46028,26.98979 11.01562,39.5918 z m 72.3418,234.39258 h 30.29883 v -64.86914 h -51.23633 z" />
        <path
           id="rect6"
           style="font-variation-settings:'opsz' 32, 'wght' 700;display:inline;fill:#999999;stroke:#ffffff;stroke-width:13.9149;stroke-miterlimit:5;stroke-dasharray:none;stroke-opacity:1;paint-order:stroke markers fill"
           d="m 473.85106,592.72927 76.29788,-1.43311 13.83614,61.23271 H 460.01492 Z" />
      </g>
    </g>
    <g
       id="text1"
       style="font-size:179.116px;line-height:0.6;font-family:'Adwaita Sans';-inkscape-font-specification:'Adwaita Sans, @opsz=32,wght=700';font-variation-settings:'opsz' 32, 'wght' 700;text-align:center;text-anchor:middle;fill:#999999;stroke:#ffffff;stroke-width:5;stroke-miterlimit:5;stroke-opacity:1;paint-order:stroke markers fill"
       aria-label="AXUSENGINE">
      <path
         style="-inkscape-font-specification:'Adwaita Sans, @opsz=32,wght=900';font-variation-settings:'opsz' 32, 'wght' 900;stroke:#ffffff;stroke-opacity:1"
         d="M 434.49558,217.46191 478.22507,87.148029 h 48.97703 l 44.16679,130.313881 h -40.93081 l -14.60565,-50.55129 q -4.72278,-16.44229 -9.18319,-32.44728 -4.46041,-16.09245 -8.65844,-33.40933 h 9.79541 q -4.37295,17.31688 -8.92082,33.40933 -4.54787,16.00499 -9.44557,32.44728 l -15.13041,50.55129 z m 32.6222,-21.42745 v -27.98687 h 71.71636 v 27.98687 z m 104.2511,21.42745 56.14867,-79.67513 v 27.02483 L 576.61642,87.148029 h 41.01827 l 10.40761,16.967041 q 2.71123,4.37295 5.24754,8.83336 2.62377,4.37295 5.16008,8.7459 2.53631,4.37295 4.98517,8.7459 h -10.67 q 2.62377,-4.37295 5.16008,-8.7459 2.53631,-4.37295 5.16008,-8.7459 2.71123,-4.46041 5.42246,-8.83336 L 659.09024,87.148029 H 699.059 l -49.32687,75.564561 v -25.27565 l 54.39949,80.02497 h -42.24269 l -14.16835,-22.3895 q -2.09902,-3.32344 -4.19804,-6.64688 -2.01155,-3.32344 -4.11057,-6.55942 -2.01155,-3.32344 -4.11057,-6.64688 h 4.72279 q -2.01156,3.32344 -4.11058,6.64688 -2.01155,3.23598 -4.11057,6.55942 -2.09901,3.32344 -4.37295,6.64688 l -14.95548,22.3895 z m 195.90813,2.09902 q -17.0545,0 -29.64859,-5.94721 -12.5941,-6.03467 -19.59082,-16.87958 -6.90926,-10.93238 -6.90926,-25.62549 V 87.148029 h 35.33343 v 80.987021 q 0,6.03467 2.71123,10.75745 2.71123,4.63533 7.34656,7.34656 4.72278,2.71123 10.75745,2.71123 6.12213,0 10.75746,-2.62377 4.72278,-2.71123 7.34655,-7.34656 2.71123,-4.72278 2.71123,-10.84491 V 87.148029 h 35.33343 v 83.960621 q 0,14.69311 -6.99672,25.62549 -6.90926,10.84491 -19.50335,16.87958 -12.5941,5.94721 -29.6486,5.94721 z m 124.71651,0 q -18.01655,0 -30.52318,-5.24754 -12.50664,-5.24754 -18.9786,-15.39278 -6.47197,-10.2327 -6.47197,-24.83835 h 34.37138 q 0.26238,5.24754 2.97361,9.00827 2.79868,3.76074 7.60893,5.7723 4.8977,2.01155 11.45713,2.01155 5.77229,0 10.05778,-1.39934 4.28549,-1.4868 6.64688,-4.02311 2.44885,-2.62377 2.44885,-6.03467 0,-3.14853 -2.27393,-5.50992 -2.27393,-2.36139 -6.99672,-4.11057 -4.72278,-1.74918 -12.06934,-3.14853 l -12.94393,-2.44885 q -18.89114,-3.58581 -28.86146,-13.29376 -9.97033,-9.70795 -9.97033,-24.22614 0,-12.41918 6.73434,-21.77729 6.73435,-9.358108 18.71623,-14.605647 11.98188,-5.247539 27.81195,-5.247539 16.26737,0 27.98688,5.16008 11.7195,5.16008 18.19147,14.868026 6.47196,9.70795 6.90926,23.35155 h -33.40934 q -0.61221,-6.8218 -5.77229,-10.75746 -5.07262,-3.93565 -13.2063,-3.93565 -5.07263,0 -9.00828,1.4868 -3.93565,1.39935 -6.20959,3.93566 -2.18647,2.44885 -2.18647,5.77229 0,3.14852 2.01155,5.335 2.01156,2.18647 6.29705,3.84819 4.37295,1.57426 11.10729,2.79869 l 10.49508,1.9241 q 11.19475,2.09901 19.24098,5.335 8.13368,3.23598 13.29376,7.8713 5.16008,4.63533 7.60893,10.75746 2.44885,6.12213 2.44885,13.90598 0,13.6436 -6.55942,23.26409 -6.47196,9.53303 -18.89114,14.60565 -12.41917,4.98516 -30.08589,4.98516 z"
         id="path1" />
      <path
         style="font-size:79.6071px;-inkscape-font-specification:'Adwaita Sans, @opsz=32,wght=900';font-variation-settings:'opsz' 32, 'wght' 900;stroke:#ffffff;stroke-opacity:1"
         d="m 547.19135,324.93152 v -57.91728 h 44.85674 v 13.68247 h -28.68655 v 8.70703 h 26.47092 v 13.21602 h -26.47092 v 8.62929 h 28.68655 v 13.68247 z m 50.29863,0 v -57.91728 h 16.48116 l 14.11004,22.73934 q 0.9329,1.47708 2.33224,4.04254 1.43822,2.5266 2.99304,5.4419 1.5937,2.91529 2.95417,5.48076 l -1.94353,4.50899 q -0.19435,-3.14852 -0.31097,-7.1522 -0.11661,-4.04254 -0.19435,-7.77413 -0.0389,-3.77045 -0.0389,-6.06382 v -21.22338 h 16.17019 v 57.91728 h -16.48115 l -13.17716,-21.14564 q -1.16612,-1.90466 -2.9153,-4.85883 -1.7103,-2.99304 -3.69271,-6.64688 -1.94353,-3.65384 -3.92593,-7.46317 l 3.18739,-0.93289 q 0.31096,4.08142 0.42758,8.00735 0.15548,3.92594 0.15548,7.03559 0.0389,3.10965 0.0389,4.85883 v 21.14564 z m 85.67093,0.93289 q -8.62929,0 -15.04295,-3.65384 -6.37479,-3.65384 -9.91202,-10.33959 -3.49835,-6.72462 -3.49835,-15.85923 0,-9.67879 3.73158,-16.36454 3.73158,-6.68576 10.10637,-10.10637 6.41366,-3.45949 14.3044,-3.45949 5.28641,0 9.95089,1.47708 4.66448,1.47709 8.24058,4.27577 3.61497,2.75982 5.83059,6.60802 2.21563,3.80932 2.60434,8.55154 h -16.48116 q -0.31096,-1.63257 -1.04951,-2.9153 -0.73854,-1.28273 -1.94353,-2.17676 -1.16612,-0.89402 -2.79869,-1.36047 -1.59369,-0.46645 -3.69271,-0.46645 -4.08142,0 -6.8801,1.86579 -2.75982,1.82692 -4.19804,5.36415 -1.39934,3.53723 -1.39934,8.70703 0,5.13093 1.43822,8.66816 1.43821,3.53723 4.27577,5.36415 2.83755,1.82692 6.99672,1.82692 3.38174,0 5.67511,-1.01064 2.33224,-1.01064 3.49836,-2.79869 1.20499,-1.82692 1.20499,-4.2369 l 3.34288,0.31097 h -13.83796 v -11.54459 h 26.27657 v 8.35719 q 0,7.54091 -3.34288,13.13829 -3.34288,5.59737 -9.36783,8.70702 -5.98608,3.07078 -14.0323,3.07078 z m 48.1996,-58.85017 v 57.91728 h -16.1702 v -57.91728 z m 6.21932,57.91728 v -57.91728 h 16.48115 l 14.11005,22.73934 q 0.9329,1.47708 2.33224,4.04254 1.43821,2.5266 2.99304,5.4419 1.5937,2.91529 2.95417,5.48076 l -1.94353,4.50899 q -0.19436,-3.14852 -0.31097,-7.1522 -0.11661,-4.04254 -0.19435,-7.77413 -0.0389,-3.77045 -0.0389,-6.06382 v -21.22338 h 16.17019 v 57.91728 h -16.48116 l -13.17715,-21.14564 q -1.16612,-1.90466 -2.9153,-4.85883 -1.71031,-2.99304 -3.69271,-6.64688 -1.94353,-3.65384 -3.92594,-7.46317 l 3.1874,-0.93289 q 0.31096,4.08142 0.42757,8.00735 0.15549,3.92594 0.15549,7.03559 0.0389,3.10965 0.0389,4.85883 v 21.14564 z m 58.77243,0 v -57.91728 h 44.85673 v 13.68247 h -28.68654 v 8.70703 h 26.47091 v 13.21602 h -26.47091 v 8.62929 h 28.68654 v 13.68247 z"
         id="path2" />
    </g>
  </g>
</svg>
