<?xml version="1.0" encoding="UTF-8" standalone="no"?>
<svg
   xml:space="preserve"
   width="1524"
   height="414"
   viewBox="0 0 1428.75 388.125"
   version="1.1"
   id="svg24"
   xmlns="http://www.w3.org/2000/svg"
   xmlns:svg="http://www.w3.org/2000/svg"><defs
     id="defs1" /><g
     id="g36"
     transform="matrix(52.463339,0,0,52.463339,3.5001639,51.906541)"
     style="stroke-width:0.0675388"><path
       d="M 1.2363844,2.0055718 0.61538448,1.6463506 0.61296141,3.7864216 1.2349997,3.4268536 Z"
       style="display:inline;fill:#e0e0e0;fill-opacity:1;stroke:none;stroke-width:0.00893489;stroke-miterlimit:5;stroke-dasharray:none;stroke-opacity:1;paint-order:stroke markers fill"
       id="path20-2" /><path
       d="M 1.3533843,3.6092381 0.70538451,3.9840626 2.606461,5.083571 V 4.3353089 Z"
       style="display:inline;fill:#e0e0e0;fill-opacity:1;stroke:none;stroke-width:0.00893489;stroke-miterlimit:5;stroke-dasharray:none;stroke-opacity:1;paint-order:stroke markers fill"
       id="path19-2" /><path
       d="M 2.8231532,4.3269872 V 5.0759427 L 4.7152297,3.9788616 4.0679222,3.6040371 Z"
       style="display:inline;fill:#e0e0e0;fill-opacity:1;stroke:none;stroke-width:0.00893489;stroke-miterlimit:5;stroke-dasharray:none;stroke-opacity:1;paint-order:stroke markers fill"
       id="path18-6" /><path
       d="M 4.1904606,3.4244264 4.817345,3.787115 4.8197681,1.6432299 4.1918453,2.0059185 Z"
       style="display:inline;fill:#e0e0e0;fill-opacity:1;stroke:none;stroke-width:0.00893489;stroke-miterlimit:5;stroke-dasharray:none;stroke-opacity:1;paint-order:stroke markers fill"
       id="path17-1" /><path
       d="M 2.8231532,0.33845222 V 1.0315829 L 4.1323067,1.7899003 4.7328835,1.4424682 Z"
       style="display:inline;fill:#e0e0e0;fill-opacity:1;stroke:none;stroke-width:0.00893489;stroke-miterlimit:5;stroke-dasharray:none;stroke-opacity:1;paint-order:stroke markers fill"
       id="path16-0" /><path
       d="M 2.606461,1.0267285 V 0.33567839 L 0.69707678,1.4424682 1.2948843,1.7885134 Z"
       style="display:inline;fill:#e0e0e0;fill-opacity:1;stroke:none;stroke-width:0.00893489;stroke-miterlimit:5;stroke-dasharray:none;stroke-opacity:1;paint-order:stroke markers fill"
       id="path15-6" /><path
       style="font-size:3.52778px;font-family:'Adwaita Mono';-inkscape-font-specification:'Adwaita Mono, @opsz=32';font-variation-settings:'opsz' 32;text-align:center;text-anchor:middle;fill:#e0e0e0;stroke:#e0e0e0;stroke-width:0.219785;stroke-miterlimit:5;stroke-dasharray:none;paint-order:stroke markers fill"
       d="m 3.1641065,4.4527742 q -0.1128123,0 -0.2299643,-0.030372 Q 2.8213296,4.3963679 2.7258727,4.3312837 2.6304158,4.2618605 2.5609926,4.1664035 2.4959084,4.0709468 2.4568579,3.9624731 2.4178073,3.8539994 2.4004516,3.7411867 2.3874347,3.624035 2.3874347,3.5068834 v -1.345074 h 0.3601327 v 1.345074 q 0,0.078101 0.00868,0.1605411 0.013016,0.078101 0.04339,0.1518632 0.030372,0.073762 0.08244,0.1388464 0.052067,0.060745 0.1171515,0.1041351 0.069424,0.039051 0.1475243,0.056406 0.08244,0.013016 0.160541,0.013016 0.078101,0 0.1562022,-0.013016 0.08244,-0.017356 0.1475242,-0.056406 0.069424,-0.04339 0.1214908,-0.1041351 0.052067,-0.065085 0.08244,-0.1388464 0.030372,-0.073762 0.039051,-0.1518632 0.013016,-0.08244 0.013016,-0.1605411 V 2.1618094 H 4.2271488 V 4.4180626 H 3.867016 V 3.9841678 Q 3.8279655,4.0883029 3.7585429,4.1794205 3.6891204,4.2705379 3.593663,4.3356225 3.5025455,4.4007071 3.3897323,4.42674 3.281258,4.452774 3.1641065,4.4527742 Z"
       id="text1"
       aria-label="u"
       transform="matrix(0.81304958,0,0,0.81304958,0.02737259,0.02063253)" /></g><path
     d="M 340.08027,258.76154 V 120.47792 h 99.21152 v 24.50124 h -70.62671 v 32.01868 h 65.33665 v 23.85167 h -65.33665 v 33.41078 h 70.62671 v 24.50125 z m 106.35772,0 39.53611,-56.33442 -0.55689,12.15781 -36.56625,-53.8284 h 29.88408 l 8.63113,13.73554 q 3.71231,6.21813 7.05339,12.065 3.34109,5.84687 6.68217,11.69374 h -8.72394 q 3.52667,-5.84687 6.86778,-11.69374 3.34107,-5.84687 7.239,-12.065 l 8.81675,-13.73554 h 29.42004 l -37.49433,53.8284 0.55689,-12.15781 38.51523,56.33442 h -29.97692 l -9.83761,-15.03496 q -3.61951,-6.12532 -6.96057,-11.69372 -3.34108,-5.66125 -6.77499,-11.32261 h 7.61024 q -3.52671,5.66136 -6.86776,11.32261 -3.34109,5.5684 -7.14621,11.69372 l -10.02323,15.03496 z m 145.05855,2.04169 q -10.39448,0 -18.19033,-4.45475 -7.70305,-4.54758 -11.9722,-13.17867 -4.26917,-8.72401 -4.26917,-21.06745 v -61.34583 h 27.37832 v 56.33429 q 0,9.83756 4.73319,15.03484 4.73319,5.10447 13.27149,5.10447 5.66129,0 9.93044,-2.32026 4.36197,-2.32014 6.77497,-7.23896 2.50582,-4.91885 2.50582,-12.43626 v -54.47812 h 27.28548 v 98.00501 H 622.1231 v -25.52221 h 4.64038 q -4.64038,12.99314 -13.27151,20.32494 -8.53831,7.23896 -21.99543,7.23896 z m 117.58742,0.37078 q -12.71471,0 -22.64507,-3.89798 -9.9305,-3.9907 -15.87018,-11.4153 -5.93968,-7.42473 -6.86771,-17.91199 h 26.91421 q 0.74275,6.40376 5.3829,10.02331 4.64041,3.61942 12.62177,3.61942 7.61024,0 11.87951,-2.87702 4.36193,-2.87703 4.36193,-7.4246 0,-3.89789 -3.3411,-6.31095 -3.24828,-2.41295 -9.28079,-3.52662 l -17.16946,-3.34109 q -14.29245,-2.78421 -21.71705,-10.02331 -7.4246,-7.23897 -7.4246,-18.56145 0,-9.28079 5.01166,-16.24143 5.10447,-6.96054 14.38525,-10.7657 9.37348,-3.80508 22.181,-3.80508 12.71469,0 22.18112,4.08352 9.46629,3.99069 14.75639,11.41541 5.3828,7.4246 5.66124,17.63342 h -25.33647 q -0.0964,-5.93968 -4.6404,-9.83755 -4.54757,-3.898 -11.87937,-3.898 -7.05346,0 -11.04415,3.06264 -3.9908,2.96986 -3.9908,7.3318 0,3.80519 3.15546,6.21814 3.15547,2.41307 8.72402,3.61954 l 18.56158,3.61955 q 14.8492,2.87703 21.80973,9.46629 7.05346,6.49657 7.05346,17.35509 0,9.74487 -5.56853,17.07666 -5.47563,7.23898 -15.31329,11.32247 -9.74475,3.99081 -22.55226,3.99081 z m 99.48994,-2.41307 v -138.2835 h 99.21152 v 24.50125 h -70.62676 v 32.01868 h 65.33676 v 23.85165 h -65.33676 v 33.41079 h 70.62676 v 24.50125 z m 142.27432,-54.47811 v 54.47811 h -27.3783 v -98.00488 h 26.9143 v 25.52209 h -4.6405 q 4.6405,-12.99303 13.2715,-20.23213 8.6312,-7.3318 21.9955,-7.3318 10.4873,0 18.1903,4.54759 7.70308,4.45476 11.87938,13.08584 4.2693,8.63121 4.2693,21.06747 v 61.34594 h -27.28558 v -56.33442 q 0,-9.83755 -4.7332,-14.94202 -4.6403,-5.19715 -13.2715,-5.19715 -5.6613,0 -10.0232,2.32012 -4.362,2.32026 -6.775,7.23898 -2.413,4.82602 -2.413,12.43626 z m 130.20948,94.57109 q -13.9213,0 -23.6661,-3.99069 -9.6522,-3.89799 -15.2206,-11.04415 -5.4756,-7.14615 -6.8678,-16.70539 h 26.3574 q 1.0209,3.71237 3.6197,6.31096 2.6913,2.59858 6.682,3.89786 3.9909,1.39222 9.0954,1.39222 10.0231,0 15.4059,-5.47572 5.4758,-5.4756 5.4758,-16.05567 V 242.1485 h -0.084 q -2.877,5.75404 -7.2391,9.46641 -4.269,3.71223 -9.8375,5.4756 -5.4758,1.76336 -11.8795,1.76336 -12.8075,0 -22.3667,-6.40374 -9.5592,-6.40377 -14.8493,-17.63354 -5.1972,-11.22967 -5.1972,-25.80055 0,-14.7564 5.29,-26.07899 5.3829,-11.41529 14.8492,-17.81906 9.5593,-6.40377 22.0883,-6.40377 6.4039,0 11.7867,1.76339 5.4756,1.76336 9.8376,5.38291 4.4548,3.61942 7.5175,9.09516 h 0.084 v -14.19962 h 27.007 v 94.19995 q 0,15.4989 -6.0325,25.15083 -6.0326,9.74487 -16.891,14.19962 -10.7658,4.54758 -24.9652,4.54758 z m -1.1137,-61.90272 q 6.9608,0 12.0651,-3.43392 5.1972,-3.52673 8.0742,-9.93048 2.8773,-6.40365 2.8773,-14.94203 0,-8.53826 -2.8773,-14.84921 -2.877,-6.40376 -8.0742,-9.83768 -5.1043,-3.52661 -12.0651,-3.52661 -6.5893,0 -11.5081,3.341 -4.9188,3.24827 -7.703,9.55922 -2.6914,6.31094 -2.6914,15.31328 0,9.00234 2.6914,15.31329 2.7842,6.31093 7.703,9.65203 4.9188,3.34111 11.5081,3.34111 z m 68.3995,21.80974 v -98.00488 h 27.3782 v 98.005 z m 13.6428,-110.34835 q -6.7749,0 -11.2298,-4.08348 -4.4548,-4.17644 -4.4548,-10.48739 0,-6.31082 4.4548,-10.39445 4.4549,-4.17631 11.1369,-4.17631 6.7751,0 11.2298,4.17631 4.4546,4.08363 4.4546,10.39445 0,6.31095 -4.4546,10.48739 -4.4547,4.08348 -11.1369,4.08348 z m 60.4178,55.87024 v 54.47823 h -27.3782 v -98.005 h 26.9141 v 25.52209 h -4.6404 q 4.6404,-12.99303 13.2715,-20.23213 8.6312,-7.3318 21.9956,-7.3318 10.4872,0 18.1902,4.54759 7.703,4.45476 11.8794,13.08584 4.2691,8.63121 4.2691,21.06747 v 61.34594 h -27.2855 v -56.33442 q 0,-9.83755 -4.7331,-14.94202 -4.6404,-5.19715 -13.2716,-5.19715 -5.6611,0 -10.0231,2.32012 -4.3622,2.32026 -6.775,7.23898 -2.413,4.82602 -2.413,12.43626 z m 128.6315,56.70556 q -14.8492,0 -25.8934,-6.49658 -10.9514,-6.58927 -17.0767,-18.19031 -6.0324,-11.60093 -6.0324,-26.45013 0,-15.03484 6.1253,-26.54307 6.2182,-11.60093 17.0767,-18.19031 10.8585,-6.58938 24.8723,-6.58938 10.8587,0 19.6754,3.71236 8.8168,3.61941 15.2204,10.48726 6.4039,6.77502 9.8377,16.05581 3.5267,9.28066 3.5267,20.51044 v 7.33178 h -86.5895 v -17.44778 h 73.4108 l -12.3433,4.17632 q 0,-7.4246 -2.6914,-12.80751 -2.6915,-5.3828 -7.7032,-8.25982 -4.9188,-2.96986 -11.7865,-2.96986 -6.775,0 -11.6938,2.96986 -4.9188,2.87702 -7.6103,8.25982 -2.6914,5.38291 -2.6914,12.80751 v 11.87936 q 0,7.61023 2.6914,13.3643 2.7843,5.66135 7.9814,8.81683 5.1974,3.06265 12.5292,3.06265 5.3828,0 9.4664,-1.48493 4.1763,-1.57772 6.9605,-4.36206 2.8771,-2.87703 4.0836,-6.6821 h 24.9653 q -1.7634,9.74487 -8.26,17.16948 -6.4965,7.4246 -16.3342,11.69373 -9.8375,4.17633 -21.7169,4.17633 z"
     id="text2"
     style="font-weight:bold;font-size:13.3333px;font-family:'Adwaita Sans';-inkscape-font-specification:'Adwaita Sans, Bold';text-align:center;text-anchor:middle;fill:#e0e0e0;stroke-width:0;stroke-miterlimit:5;paint-order:stroke markers fill"
     aria-label="Exus Engine" /></svg>
